<svg width="36" height="36" viewBox="0 0 36 36" fill="none" xmlns="http://www.w3.org/2000/svg">
<circle cx="18.3808" cy="17.6122" r="17.619" fill="white"/>
<path d="M27.8954 13.4081C27.8852 12.6455 27.7424 11.8906 27.4735 11.177C27.2403 10.5751 26.8841 10.0284 26.4276 9.57198C25.9712 9.11553 25.4245 8.75931 24.8226 8.52608C24.1182 8.26165 23.374 8.11867 22.6217 8.10323C21.6532 8.05993 21.3461 8.04785 18.8875 8.04785C16.4289 8.04785 16.1137 8.04785 15.1522 8.10323C14.4003 8.11878 13.6565 8.26177 12.9524 8.52608C12.3504 8.75915 11.8036 9.11531 11.3472 9.57178C10.8907 10.0283 10.5345 10.575 10.3015 11.177C10.0365 11.8809 9.89384 12.6249 9.87962 13.3769C9.83633 14.3464 9.82324 14.6535 9.82324 17.1121C9.82324 19.5707 9.82324 19.8848 9.87962 20.8473C9.89473 21.6004 10.0367 22.3434 10.3015 23.0492C10.5349 23.651 10.8914 24.1975 11.348 24.6538C11.8046 25.1101 12.3514 25.4661 12.9534 25.6991C13.6556 25.9742 14.3995 26.1274 15.1533 26.1522C16.1228 26.1955 16.4299 26.2086 18.8885 26.2086C21.3471 26.2086 21.6622 26.2086 22.6237 26.1522C23.376 26.1374 24.1202 25.9947 24.8246 25.7303C25.4264 25.4968 25.9729 25.1405 26.4293 24.6841C26.8857 24.2277 27.242 23.6812 27.4755 23.0794C27.7403 22.3747 27.8823 21.6316 27.8974 20.8775C27.9407 19.909 27.9537 19.6019 27.9537 17.1423C27.9517 14.6837 27.9517 14.3716 27.8954 13.4081ZM18.8814 21.7615C16.3101 21.7615 14.227 19.6784 14.227 17.1071C14.227 14.5357 16.3101 12.4526 18.8814 12.4526C20.1159 12.4526 21.2998 12.943 22.1726 13.8159C23.0455 14.6887 23.5359 15.8726 23.5359 17.1071C23.5359 18.3415 23.0455 19.5254 22.1726 20.3983C21.2998 21.2711 20.1159 21.7615 18.8814 21.7615ZM23.7211 13.3658C23.5786 13.3659 23.4374 13.3379 23.3057 13.2834C23.1739 13.2289 23.0542 13.149 22.9534 13.0482C22.8526 12.9474 22.7727 12.8277 22.7182 12.6959C22.6637 12.5642 22.6357 12.423 22.6358 12.2804C22.6358 12.138 22.6639 11.9969 22.7184 11.8653C22.7729 11.7337 22.8528 11.6141 22.9536 11.5134C23.0543 11.4126 23.1739 11.3327 23.3055 11.2782C23.4371 11.2237 23.5782 11.1956 23.7206 11.1956C23.8631 11.1956 24.0042 11.2237 24.1358 11.2782C24.2674 11.3327 24.387 11.4126 24.4877 11.5134C24.5885 11.6141 24.6684 11.7337 24.7229 11.8653C24.7774 11.9969 24.8055 12.138 24.8055 12.2804C24.8055 12.8805 24.3202 13.3658 23.7211 13.3658Z" fill="#242424"/>
<path d="M18.8813 20.1308C20.5511 20.1308 21.9048 18.7772 21.9048 17.1074C21.9048 15.4376 20.5511 14.084 18.8813 14.084C17.2115 14.084 15.8579 15.4376 15.8579 17.1074C15.8579 18.7772 17.2115 20.1308 18.8813 20.1308Z" fill="#242424"/>
</svg>
