<svg width="234" height="24" viewBox="0 0 234 24"  xmlns="http://www.w3.org/2000/svg">
<path d="M21.6659 19.1341C23.0203 19.1341 23.6976 19.9252 23.6976 21.5073C23.6976 23.1008 23.0203 23.9089 21.6659 23.9317H11.9C8.34878 23.9317 5.46911 22.8447 3.26098 20.6707C1.08699 18.4967 0 15.6171 0 12.0317C0 8.49187 1.08699 5.63496 3.26098 3.46098C5.48049 1.24146 8.3374 0.120325 11.8317 0.0975608H21.6659C23.0203 0.0747966 23.6976 0.854471 23.6976 2.43659C23.6976 4.0187 23.0317 4.80406 21.7 4.79268L20.9317 4.86098H11.8317C9.76016 4.9065 8.05854 5.59512 6.72683 6.92683C5.41789 8.26992 4.76341 9.97154 4.76341 12.0317C4.76341 15.0593 5.98699 17.1707 8.43415 18.3659C9.50406 18.9236 10.6366 19.1797 11.8317 19.1341H21.6659ZM44.1149 14.3707C42.4417 14.4163 41.6051 13.6366 41.6051 12.0317C41.6051 10.4951 42.4076 9.70407 44.0125 9.65854H49.0149C50.3694 9.65854 51.223 9.29431 51.5759 8.56585C51.7352 8.17886 51.8149 7.74634 51.8149 7.26829C51.8149 6.66504 51.7125 6.22683 51.5076 5.95366C51.3141 5.65772 50.9157 5.4187 50.3125 5.23658C49.5271 5.00894 48.4401 4.88374 47.0515 4.86098H39.1808C38.0881 4.86098 37.5417 5.44146 37.5417 6.60244V21.5073C37.61 23.1236 36.8247 23.9203 35.1856 23.8976C33.5808 23.8976 32.7783 23.1008 32.7783 21.5073V3.10244C32.7783 1.11057 33.6661 0.108943 35.4417 0.0975608H46.9832C51.0694 0.120325 53.8808 1.20732 55.4173 3.35854C56.1686 4.45122 56.5442 5.75447 56.5442 7.26829C56.4076 10.0911 55.2637 11.7585 53.1125 12.2707C55.2409 12.7602 56.3621 14.2683 56.4759 16.7951V21.5073C56.4759 23.1008 55.6678 23.8976 54.0515 23.8976C52.458 23.8976 51.6897 23.1008 51.7466 21.5073V16.761C51.8149 16.3398 51.758 15.9187 51.5759 15.4976C51.223 14.7463 50.3694 14.3707 49.0149 14.3707H44.1149ZM70.3884 14.3707V17.3927C70.3884 18.5537 70.8551 19.1341 71.7884 19.1341H87.2909C88.6453 19.1341 89.3226 19.9252 89.3226 21.5073C89.3226 23.1008 88.5998 23.8976 87.1543 23.8976H68.186C66.4787 23.8976 65.625 22.9756 65.625 21.1317V2.89756C65.625 1.03089 66.4388 0.0975608 68.0665 0.0975608H87.2909C88.6453 0.0747966 89.3226 0.854471 89.3226 2.43659C89.3226 4.0187 88.6567 4.80406 87.325 4.79268H71.7884C70.8551 4.86098 70.3884 5.4187 70.3884 6.46585V9.65854H78.1567C79.7616 9.70407 80.564 10.4951 80.564 12.0317C80.564 13.6366 79.7274 14.4163 78.0543 14.3707H70.3884ZM110.355 7.43902C109.831 5.81138 109.29 5.81138 108.733 7.43902L102.859 22.8049C102.575 23.5333 102.097 23.9089 101.425 23.9317H99.0009C98.1017 23.8748 97.8342 23.3171 98.1984 22.2585L106.428 1.46342C106.94 0.552846 107.976 0.0975608 109.535 0.0975608C111.072 0.0975608 112.09 0.586992 112.591 1.56585L121.025 22.361C121.355 23.3398 121.088 23.852 120.223 23.8976L117.798 23.9317C117.104 23.9089 116.615 23.5333 116.33 22.8049L110.355 7.43902ZM152.266 19.1341C153.621 19.1341 154.298 19.9252 154.298 21.5073C154.298 23.1008 153.575 23.8976 152.13 23.8976H133.264C131.488 23.8976 130.601 22.9073 130.601 20.9268V2.50488C130.601 0.968292 131.403 0.177236 133.008 0.131707C134.647 0.108943 135.432 0.9 135.364 2.50488V16.7951C135.364 18.4 135.979 19.1797 137.208 19.1341H152.266ZM163.379 2.50488C163.379 0.968292 164.181 0.177236 165.786 0.131707C167.425 0.108943 168.211 0.9 168.142 2.50488V21.5073C168.211 23.1236 167.425 23.9203 165.786 23.8976C164.181 23.8976 163.379 23.1008 163.379 21.5073V2.50488ZM200.953 21.7634C200.953 23.1862 200.219 23.8976 198.751 23.8976H197.453C196.634 23.8976 195.945 23.6187 195.388 23.061L183.761 10.8366C182.6 9.85772 182.019 9.86911 182.019 10.8707V21.5073C182.088 23.1236 181.302 23.9203 179.663 23.8976C178.058 23.8976 177.256 23.1008 177.256 21.5073V1.90732C177.256 0.712195 177.802 0.108943 178.895 0.0975608H180.056C180.75 0.0975608 181.427 0.410569 182.088 1.03658L194.653 14.5927C195.701 15.1959 196.224 14.9512 196.224 13.8585V2.50488C196.156 0.9 196.924 0.108943 198.529 0.131707C200.157 0.154471 200.976 0.934146 200.988 2.47073L200.953 21.7634ZM214.832 14.3707V17.3927C214.832 18.5537 215.298 19.1341 216.232 19.1341H231.734C233.089 19.1341 233.766 19.9252 233.766 21.5073C233.766 23.1008 233.043 23.8976 231.598 23.8976H212.629C210.922 23.8976 210.068 22.9756 210.068 21.1317V2.89756C210.068 1.03089 210.882 0.0975608 212.51 0.0975608H231.734C233.089 0.0747966 233.766 0.854471 233.766 2.43659C233.766 4.0187 233.1 4.80406 231.768 4.79268H216.232C215.298 4.86098 214.832 5.4187 214.832 6.46585V9.65854H222.6C224.205 9.70407 225.007 10.4951 225.007 12.0317C225.007 13.6366 224.171 14.4163 222.498 14.3707H214.832Z" fill="white"/>
</svg>
