<svg width="265" height="233" viewBox="0 0 265 233" fill="none" xmlns="http://www.w3.org/2000/svg">
<path d="M112.676 130.968C121.758 143.423 125.28 156.16 123.241 169.177C121.213 182.127 114.011 193.114 101.635 202.138C89.3379 211.106 76.6213 214.613 63.4854 212.661C50.4677 210.622 39.4322 203.395 30.3788 190.979C21.4405 178.721 17.9906 166.083 20.0293 153.066C22.2075 139.826 29.4059 128.751 41.6244 119.841C53.9217 110.874 66.6276 107.435 79.7422 109.523C92.7599 111.562 103.738 118.71 112.676 130.968ZM46.8738 178.951C54.5189 189.435 64.0873 193.657 75.5792 191.616C80.5562 190.825 85.2322 188.834 89.6072 185.644C99.1849 178.659 103.558 169.796 102.727 159.052C102.322 153.612 100.18 148.231 96.2996 142.91C90.6951 135.224 83.6299 130.958 75.1039 130.112C67.5247 129.239 60.3455 131.274 53.5662 136.218C46.3139 141.506 42.0527 148.205 40.7826 156.316C39.6413 164.272 41.6717 171.817 46.8738 178.951ZM65.3577 152.885C59.8759 157.124 59.0749 161.904 62.9549 167.225C66.9212 172.664 71.8066 173.237 77.6112 168.944C82.9321 165.064 83.5951 160.385 79.6001 154.906C75.5764 149.388 70.829 148.714 65.3577 152.885ZM211.541 109.589C215.658 114.738 214.839 119.41 209.084 123.606C203.527 127.659 198.819 126.956 194.96 121.499L157.367 69.9449C154.32 65.7669 150.866 65.0863 147.003 67.9029L134.765 76.8269C129.047 81.2382 124.147 80.6454 120.066 75.0485C116.128 69.6488 116.762 64.93 121.968 60.8924L147.923 41.9665C150.223 39.9875 152.809 39.1881 155.683 39.5682C158.323 39.8769 160.915 41.1558 163.461 43.4049L211.541 109.589ZM256.405 88.3755C251.048 92.0404 246.53 91.3503 242.851 86.3052C239.201 81.2996 240.116 76.7993 245.594 72.8043C250.797 69.0105 255.266 69.6756 259.003 74.7994C262.739 79.9233 261.873 84.4487 256.405 88.3755Z" fill="#262626" fill-opacity="0.11"/>
</svg>
