<svg width="36" height="36" viewBox="0 0 36 36" fill="none" xmlns="http://www.w3.org/2000/svg">
<path d="M35.9998 17.6122C35.9998 22.2851 34.1435 26.7665 30.8393 30.0708C27.5351 33.375 23.0536 35.2313 18.3808 35.2313C13.7079 35.2313 9.22643 33.375 5.92222 30.0708C2.61801 26.7665 0.761719 22.2851 0.761719 17.6122C0.761719 12.9393 2.61801 8.45788 5.92222 5.15366C9.22643 1.84945 13.7079 -0.00683594 18.3808 -0.00683594C23.0536 -0.00683594 27.5351 1.84945 30.8393 5.15366C34.1435 8.45788 35.9998 12.9393 35.9998 17.6122ZM19.0128 13.0004C17.2994 13.714 13.8725 15.1896 8.73654 17.4272C7.90404 17.7576 7.46577 18.0835 7.42612 18.4007C7.36005 18.9358 8.03178 19.1473 8.94577 19.4358L9.33118 19.5569C10.2298 19.8498 11.4411 20.1912 12.0687 20.2044C12.6414 20.2176 13.2778 19.9842 13.9804 19.4997C18.7794 16.26 21.2571 14.6236 21.4112 14.5883C21.5214 14.5619 21.6755 14.5311 21.7768 14.6236C21.8803 14.7139 21.8693 14.8879 21.8583 14.9341C21.7923 15.2182 19.156 17.6673 17.7927 18.9358C17.3677 19.3323 17.0659 19.612 17.0043 19.6758C16.8685 19.8146 16.7305 19.9512 16.5902 20.0855C15.7533 20.8916 15.1278 21.495 16.6233 22.4817C17.3434 22.9574 17.9205 23.3472 18.4953 23.7392C19.1208 24.1665 19.7462 24.5916 20.5567 25.1245C20.7615 25.2567 20.9598 25.3998 21.1514 25.5364C21.8804 26.0561 22.5389 26.523 23.3471 26.4482C23.8184 26.4041 24.3052 25.9636 24.5518 24.6422C25.1355 21.5214 26.2829 14.7623 26.5472 11.9763C26.5633 11.7447 26.5537 11.512 26.5186 11.2826C26.4978 11.0974 26.4082 10.9268 26.2675 10.8047C26.0671 10.6663 25.8282 10.5947 25.5848 10.5998C24.924 10.6108 23.9043 10.9654 19.0128 13.0004Z" fill="white"/>
</svg>
