<svg width="36" height="36" viewBox="0 0 36 36" fill="none" xmlns="http://www.w3.org/2000/svg">
<circle cx="18.3808" cy="17.6122" r="17.619" fill="white"/>
<path d="M26.4156 12.1556C23.723 7.99303 18.2256 6.75552 13.9624 9.34304C9.81132 11.9306 8.46503 17.5556 11.1576 21.7181L11.382 22.0556L10.4845 25.4307L13.8502 24.5307L14.1868 24.7557C15.6452 25.5432 17.2159 25.9932 18.7866 25.9932C20.4695 25.9932 22.1523 25.5432 23.6108 24.6432C27.7619 21.9431 28.996 16.4306 26.4156 12.1556ZM24.0596 20.8181C23.6108 21.4931 23.0498 21.9431 22.2645 22.0556C21.8157 22.0556 21.2548 22.2806 19.011 21.3806C17.1037 20.4806 15.5331 19.0181 14.4111 17.3306C13.738 16.5431 13.4014 15.5306 13.2892 14.5181C13.2892 13.6181 13.6258 12.8306 14.1868 12.2681C14.4111 12.0431 14.6355 11.9306 14.8599 11.9306H15.4209C15.6452 11.9306 15.8696 11.9306 15.9818 12.3806C16.2062 12.9431 16.7672 14.2931 16.7672 14.4056C16.8793 14.5181 16.8793 14.7431 16.7672 14.8556C16.8793 15.0806 16.7672 15.3056 16.655 15.4181C16.5428 15.5306 16.4306 15.7556 16.3184 15.8681C16.094 15.9806 15.9818 16.2056 16.094 16.4306C16.5428 17.1056 17.1037 17.7806 17.6647 18.3431C18.3378 18.9056 19.011 19.3556 19.7963 19.6931C20.0207 19.8056 20.2451 19.8056 20.3573 19.5806C20.4695 19.3556 21.0304 18.7931 21.2548 18.5681C21.4792 18.3431 21.5914 18.3431 21.8157 18.4556L23.6108 19.3556C23.8352 19.4681 24.0596 19.5806 24.1718 19.6931C24.2839 20.0306 24.2839 20.4806 24.0596 20.8181Z" fill="#242424"/>
</svg>
