<svg width="36" height="36" viewBox="0 0 36 36" fill="none" xmlns="http://www.w3.org/2000/svg">
<circle cx="18.3808" cy="17.6122" r="17.619" fill="white"/>
<path d="M28.3047 12.4912C28.7617 14.2732 28.7617 17.9932 28.7617 17.9932C28.7617 17.9932 28.7617 21.7132 28.3047 23.4952C28.0507 24.4802 27.3077 25.2552 26.3667 25.5172C24.6577 25.9932 18.7617 25.9932 18.7617 25.9932C18.7617 25.9932 12.8687 25.9932 11.1567 25.5172C10.2117 25.2512 9.46972 24.4772 9.21872 23.4952C8.76172 21.7132 8.76172 17.9932 8.76172 17.9932C8.76172 17.9932 8.76172 14.2732 9.21872 12.4912C9.47272 11.5062 10.2157 10.7312 11.1567 10.4692C12.8687 9.99316 18.7617 9.99316 18.7617 9.99316C18.7617 9.99316 24.6577 9.99316 26.3667 10.4692C27.3117 10.7352 28.0537 11.5092 28.3047 12.4912ZM16.7617 21.4932L22.7617 17.9932L16.7617 14.4932V21.4932Z" fill="#242424"/>
</svg>
